<?xml version="1.0" encoding="utf-8"?>
<svg version="1.1" xmlns:xlink="http://www.w3.org/1999/xlink" width="33px" height="30px" xmlns="http://www.w3.org/2000/svg">
  <g transform="matrix(1 0 0 1 -533 -760 )">
    <path d="M 32.3984375 0.504807692307694  C 32.7994791666667 0.841346153846151  33 1.25  33 1.73076923076923  L 33 21.9230769230769  C 33 22.5240384615385  32.7565104166667 23.0588942307692  32.26953125 23.5276442307692  C 31.7825520833333 23.9963942307692  31.1666666666667 24.3599759615385  30.421875 24.6183894230769  C 29.6770833333333 24.8768028846154  28.9358723958333 25.0691105769231  28.1982421875 25.1953125  C 27.4606119791667 25.3215144230769  26.76953125 25.3846153846154  26.125 25.3846153846154  C 25.48046875 25.3846153846154  24.7893880208333 25.3215144230769  24.0517578125 25.1953125  C 23.3141276041667 25.0691105769231  22.5729166666667 24.8768028846154  21.828125 24.6183894230769  C 21.0833333333333 24.3599759615385  20.4674479166667 23.9963942307692  19.98046875 23.5276442307692  C 19.4934895833333 23.0588942307692  19.25 22.5240384615385  19.25 21.9230769230769  C 19.25 21.3221153846154  19.4934895833333 20.7872596153846  19.98046875 20.3185096153846  C 20.4674479166667 19.8497596153846  21.0833333333333 19.4861778846154  21.828125 19.2277644230769  C 22.5729166666667 18.9693509615385  23.3141276041667 18.7770432692308  24.0517578125 18.6508413461538  C 24.7893880208333 18.5246394230769  25.48046875 18.4615384615385  26.125 18.4615384615385  C 27.62890625 18.4615384615385  29.00390625 18.6959134615385  30.25 19.1646634615385  L 30.25 9.48317307692308  L 14 13.7560096153846  L 14 26.5384615384615  C 13.75 27.1394230769231  13.5065104166667 27.6742788461538  13.01953125 28.1430288461538  C 12.5325520833333 28.6117788461538  11.9166666666667 28.9753605769231  11.171875 29.2337740384615  C 10.4270833333333 29.4921875  9.68587239583333 29.6844951923077  8.9482421875 29.8106971153846  C 8.21061197916667 29.9368990384615  7.51953125 30  6.875 30  C 6.23046875 30  5.53938802083333 29.9368990384615  4.8017578125 29.8106971153846  C 4.06412760416667 29.6844951923077  3.32291666666667 29.4921875  2.578125 29.2337740384615  C 1.83333333333333 28.9753605769231  1.21744791666667 28.6117788461538  0.73046875 28.1430288461538  C 0.243489583333333 27.6742788461538  0 27.1394230769231  0 26.5384615384615  C 0 25.9375  0.243489583333333 25.4026442307692  0.73046875 24.9338942307692  C 1.21744791666667 24.4651442307692  1.83333333333333 24.1015625  2.578125 23.8431490384615  C 3.32291666666667 23.5847355769231  4.06412760416667 23.3924278846154  4.8017578125 23.2662259615385  C 5.53938802083333 23.1400240384615  6.23046875 23.0769230769231  6.875 23.0769230769231  C 8.37890625 23.0769230769231  9.75390625 23.3112980769231  11 23.7800480769231  L 11 6.34615384615385  C 11 5.97355769230769  11.1360677083333 5.63401442307692  11.408203125 5.32752403846154  C 11.6803385416667 5.02103365384615  12.03125 4.8076923076923  12.4609375 4.6875  L 30.3359375 0.0721153846153844  C 30.5078125 0.0240384615384615  30.7083333333333 0  30.9375 0  C 31.5104166666667 0  31.9973958333333 0.16826923076923  32.3984375 0.504807692307694  Z " fill-rule="nonzero" fill="#fa541c" stroke="none" transform="matrix(1 0 0 1 533 760 )" />
  </g>
</svg>