<?xml version="1.0" encoding="utf-8"?>
<svg version="1.1" xmlns:xlink="http://www.w3.org/1999/xlink" width="25px" height="25px" xmlns="http://www.w3.org/2000/svg">
  <g transform="matrix(1 0 0 1 -1506 -269 )">
    <path d="M 1.92307692307692 19.1964285714286  L 1.92307692307692 23.2142857142857  L 6.25 23.2142857142857  L 6.25 19.1964285714286  L 1.92307692307692 19.1964285714286  Z M 7.21153846153846 19.1964285714286  L 7.21153846153846 23.2142857142857  L 12.0192307692308 23.2142857142857  L 12.0192307692308 19.1964285714286  L 7.21153846153846 19.1964285714286  Z M 1.92307692307692 13.8392857142857  L 1.92307692307692 18.3035714285714  L 6.25 18.3035714285714  L 6.25 13.8392857142857  L 1.92307692307692 13.8392857142857  Z M 7.21153846153846 13.8392857142857  L 7.21153846153846 18.3035714285714  L 12.0192307692308 18.3035714285714  L 12.0192307692308 13.8392857142857  L 7.21153846153846 13.8392857142857  Z M 1.92307692307692 8.92857142857143  L 1.92307692307692 12.9464285714286  L 6.25 12.9464285714286  L 6.25 8.92857142857143  L 1.92307692307692 8.92857142857143  Z M 12.9807692307692 19.1964285714286  L 12.9807692307692 23.2142857142857  L 17.7884615384615 23.2142857142857  L 17.7884615384615 19.1964285714286  L 12.9807692307692 19.1964285714286  Z M 7.21153846153846 8.92857142857143  L 7.21153846153846 12.9464285714286  L 12.0192307692308 12.9464285714286  L 12.0192307692308 8.92857142857143  L 7.21153846153846 8.92857142857143  Z M 18.75 19.1964285714286  L 18.75 23.2142857142857  L 23.0769230769231 23.2142857142857  L 23.0769230769231 19.1964285714286  L 18.75 19.1964285714286  Z M 12.9807692307692 13.8392857142857  L 12.9807692307692 18.3035714285714  L 17.7884615384615 18.3035714285714  L 17.7884615384615 13.8392857142857  L 12.9807692307692 13.8392857142857  Z M 7.54957932692308 6.56389508928572  C 7.64473157051282 6.47553943452381  7.69230769230769 6.37090773809524  7.69230769230769 6.25  L 7.69230769230769 2.23214285714286  C 7.69230769230769 2.11123511904762  7.64473157051282 2.00660342261905  7.54957932692308 1.91824776785714  C 7.45442708333333 1.82989211309524  7.3417467948718 1.78571428571428  7.21153846153846 1.78571428571428  L 6.25 1.78571428571428  C 6.11979166666667 1.78571428571428  6.00711137820513 1.82989211309524  5.91195913461539 1.91824776785714  C 5.81680689102564 2.00660342261905  5.76923076923077 2.11123511904762  5.76923076923077 2.23214285714286  L 5.76923076923077 6.25  C 5.76923076923077 6.37090773809524  5.81680689102564 6.47553943452381  5.91195913461539 6.56389508928572  C 6.00711137820513 6.65225074404762  6.11979166666667 6.69642857142857  6.25 6.69642857142857  L 7.21153846153846 6.69642857142857  C 7.3417467948718 6.69642857142857  7.45442708333333 6.65225074404762  7.54957932692308 6.56389508928572  Z M 18.75 13.8392857142857  L 18.75 18.3035714285714  L 23.0769230769231 18.3035714285714  L 23.0769230769231 13.8392857142857  L 18.75 13.8392857142857  Z M 12.9807692307692 8.92857142857143  L 12.9807692307692 12.9464285714286  L 17.7884615384615 12.9464285714286  L 17.7884615384615 8.92857142857143  L 12.9807692307692 8.92857142857143  Z M 18.75 8.92857142857143  L 18.75 12.9464285714286  L 23.0769230769231 12.9464285714286  L 23.0769230769231 8.92857142857143  L 18.75 8.92857142857143  Z M 19.0880408653846 6.56389508928572  C 19.1831931089744 6.47553943452381  19.2307692307692 6.37090773809524  19.2307692307692 6.25  L 19.2307692307692 2.23214285714286  C 19.2307692307692 2.11123511904762  19.1831931089744 2.00660342261905  19.0880408653846 1.91824776785714  C 18.9928886217949 1.82989211309524  18.8802083333333 1.78571428571428  18.75 1.78571428571428  L 17.7884615384615 1.78571428571428  C 17.6582532051282 1.78571428571428  17.5455729166667 1.82989211309524  17.4504206730769 1.91824776785714  C 17.3552684294872 2.00660342261905  17.3076923076923 2.11123511904762  17.3076923076923 2.23214285714286  L 17.3076923076923 6.25  C 17.3076923076923 6.37090773809524  17.3552684294872 6.47553943452381  17.4504206730769 6.56389508928572  C 17.5455729166667 6.65225074404762  17.6582532051282 6.69642857142857  17.7884615384615 6.69642857142857  L 18.75 6.69642857142857  C 18.8802083333333 6.69642857142857  18.9928886217949 6.65225074404762  19.0880408653846 6.56389508928572  Z M 24.4290865384615 4.1015625  C 24.8096955128205 4.45498511904762  25 4.8735119047619  25 5.35714285714286  L 25 23.2142857142857  C 25 23.6979166666667  24.8096955128205 24.116443452381  24.4290865384615 24.4698660714286  C 24.0484775641026 24.8232886904762  23.5977564102564 25  23.0769230769231 25  L 1.92307692307692 25  C 1.40224358974359 25  0.951522435897436 24.8232886904762  0.570913461538461 24.4698660714286  C 0.190304487179487 24.116443452381  0 23.6979166666667  0 23.2142857142857  L 0 5.35714285714286  C 0 4.8735119047619  0.190304487179487 4.45498511904762  0.570913461538461 4.1015625  C 0.951522435897436 3.74813988095238  1.40224358974359 3.57142857142857  1.92307692307692 3.57142857142857  L 3.84615384615385 3.57142857142857  L 3.84615384615385 2.23214285714286  C 3.84615384615385 1.61830357142857  4.08153044871795 1.09281994047619  4.55228365384615 0.655691964285715  C 5.02303685897436 0.218563988095238  5.58894230769231 0  6.25 0  L 7.21153846153846 0  C 7.87259615384615 0  8.4385016025641 0.218563988095238  8.90925480769231 0.655691964285715  C 9.38000801282051 1.09281994047619  9.61538461538462 1.61830357142857  9.61538461538462 2.23214285714286  L 9.61538461538462 3.57142857142857  L 15.3846153846154 3.57142857142857  L 15.3846153846154 2.23214285714286  C 15.3846153846154 1.61830357142857  15.6199919871795 1.09281994047619  16.0907451923077 0.655691964285715  C 16.5614983974359 0.218563988095238  17.1274038461538 0  17.7884615384615 0  L 18.75 0  C 19.4110576923077 0  19.9769631410256 0.218563988095238  20.4477163461538 0.655691964285715  C 20.9184695512821 1.09281994047619  21.1538461538462 1.61830357142857  21.1538461538462 2.23214285714286  L 21.1538461538462 3.57142857142857  L 23.0769230769231 3.57142857142857  C 23.5977564102564 3.57142857142857  24.0484775641026 3.74813988095238  24.4290865384615 4.1015625  Z " fill-rule="nonzero" fill="#7f7f7f" stroke="none" transform="matrix(1 0 0 1 1506 269 )" />
  </g>
</svg>