<?xml version="1.0" encoding="utf-8"?>
<svg version="1.1" xmlns:xlink="http://www.w3.org/1999/xlink" width="36px" height="36px" xmlns="http://www.w3.org/2000/svg">
  <g transform="matrix(1 0 0 1 -683 -746 )">
    <path d="M 22.078125 22.078125  C 23.9747596153846 20.1814903846154  24.9230769230769 17.8990384615385  24.9230769230769 15.2307692307692  C 24.9230769230769 12.5625  23.9747596153846 10.2800480769231  22.078125 8.38341346153846  C 20.1814903846154 6.48677884615384  17.8990384615385 5.53846153846154  15.2307692307692 5.53846153846154  C 12.5625 5.53846153846154  10.2800480769231 6.48677884615384  8.38341346153846 8.38341346153846  C 6.48677884615385 10.2800480769231  5.53846153846154 12.5625  5.53846153846154 15.2307692307692  C 5.53846153846154 17.8990384615385  6.48677884615385 20.1814903846154  8.38341346153846 22.078125  C 10.2800480769231 23.9747596153846  12.5625 24.9230769230769  15.2307692307692 24.9230769230769  C 17.8990384615385 24.9230769230769  20.1814903846154 23.9747596153846  22.078125 22.078125  Z M 35.1995192307692 31.2836538461538  C 35.7331730769231 31.8173076923077  36 32.4663461538462  36 33.2307692307692  C 36 33.9807692307692  35.7259615384615 34.6298076923077  35.1778846153846 35.1778846153846  C 34.6298076923077 35.7259615384615  33.9807692307692 36  33.2307692307692 36  C 32.4519230769231 36  31.8028846153846 35.7259615384615  31.2836538461538 35.1778846153846  L 23.8629807692308 27.7788461538462  C 21.28125 29.5673076923077  18.4038461538462 30.4615384615385  15.2307692307692 30.4615384615385  C 13.1682692307692 30.4615384615385  11.1959134615385 30.0612980769231  9.31370192307692 29.2608173076923  C 7.43149038461539 28.4603365384615  5.80889423076923 27.3786057692308  4.44591346153846 26.015625  C 3.08293269230769 24.6526442307692  2.00120192307692 23.0300480769231  1.20072115384615 21.1478365384615  C 0.400240384615385 19.265625  0 17.2932692307692  0 15.2307692307692  C 0 13.1682692307692  0.400240384615385 11.1959134615385  1.20072115384615 9.31370192307692  C 2.00120192307692 7.43149038461538  3.08293269230769 5.80889423076923  4.44591346153846 4.44591346153846  C 5.80889423076923 3.08293269230769  7.43149038461539 2.00120192307692  9.31370192307692 1.20072115384616  C 11.1959134615385 0.400240384615384  13.1682692307692 0  15.2307692307692 0  C 17.2932692307692 0  19.265625 0.400240384615384  21.1478365384615 1.20072115384616  C 23.0300480769231 2.00120192307692  24.6526442307692 3.08293269230769  26.015625 4.44591346153846  C 27.3786057692308 5.80889423076923  28.4603365384615 7.43149038461538  29.2608173076923 9.31370192307692  C 30.0612980769231 11.1959134615385  30.4615384615385 13.1682692307692  30.4615384615385 15.2307692307692  C 30.4615384615385 18.4038461538462  29.5673076923077 21.28125  27.7788461538462 23.8629807692308  L 35.1995192307692 31.2836538461538  Z " fill-rule="nonzero" fill="#ed6e4d" stroke="none" transform="matrix(1 0 0 1 683 746 )" />
  </g>
</svg>