<?xml version="1.0" encoding="utf-8"?>
<svg version="1.1" xmlns:xlink="http://www.w3.org/1999/xlink" width="12px" height="26px" xmlns="http://www.w3.org/2000/svg">
  <g transform="matrix(1 0 0 1 -259 -958 )">
    <path d="M 11.7938144329897 12.4008016032064  C 11.9312714776632 12.5744822979292  12 12.7742150968604  12 13  C 12 13.2257849031396  11.9312714776632 13.4255177020708  11.7938144329897 13.5991983967936  L 2.18556701030928 25.7394789579158  C 2.04810996563574 25.9131596526386  1.89003436426117 26  1.71134020618557 26  C 1.53264604810997 26  1.3745704467354 25.9131596526386  1.23711340206186 25.7394789579158  L 0.206185567010309 24.436873747495  C 0.0687285223367698 24.2631930527722  0 24.063460253841  0 23.8376753507014  C 0 23.6118904475618  0.0687285223367698 23.4121576486306  0.206185567010309 23.2384769539078  L 8.30927835051546 13  L 0.206185567010309 2.76152304609218  C 0.0687285223367698 2.5878423513694  0 2.38810955243821  0 2.1623246492986  C 0 1.93653974615898  0.0687285223367698 1.73680694722779  0.206185567010309 1.56312625250501  L 1.23711340206186 0.260521042084169  C 1.3745704467354 0.0868403473613886  1.53264604810997 0  1.71134020618557 0  C 1.89003436426117 0  2.04810996563574 0.0868403473613886  2.18556701030928 0.260521042084169  L 11.7938144329897 12.4008016032064  Z " fill-rule="nonzero" fill="#ffffff" stroke="none" transform="matrix(1 0 0 1 259 958 )" />
  </g>
</svg>