<?xml version="1.0" encoding="utf-8"?>
<svg version="1.1" xmlns:xlink="http://www.w3.org/1999/xlink" width="19px" height="17px" xmlns="http://www.w3.org/2000/svg">
  <g transform="matrix(1 0 0 1 -581 -1748 )">
    <path d="M 18.5487804878049 7.94565217391304  C 18.849593495935 8.24592391304348  19 8.59624094202898  19 8.99660326086956  C 19 9.38926630434783  18.849593495935 9.73573369565217  18.5487804878049 10.0360054347826  L 17.6341463414634 10.9021739130435  C 17.3252032520325 11.1947463768116  16.9552845528455 11.3410326086957  16.5243902439024 11.3410326086957  C 16.0853658536585 11.3410326086957  15.719512195122 11.1947463768116  15.4268292682927 10.9021739130435  L 11.8414634146341 7.51834239130435  L 11.8414634146341 15.648777173913  C 11.8414634146341 16.0491394927536  11.6890243902439 16.3744338768116  11.3841463414634 16.624660326087  C 11.0792682926829 16.8748867753623  10.7113821138211 17  10.280487804878 17  L 8.71951219512195 17  C 8.28861788617886 17  7.92073170731707 16.8748867753623  7.61585365853659 16.624660326087  C 7.3109756097561 16.3744338768116  7.15853658536585 16.0491394927536  7.15853658536585 15.648777173913  L 7.15853658536585 7.51834239130435  L 3.57317073170732 10.9021739130435  C 3.28048780487805 11.1947463768116  2.91463414634146 11.3410326086957  2.47560975609756 11.3410326086957  C 2.03658536585366 11.3410326086957  1.67073170731707 11.1947463768116  1.3780487804878 10.9021739130435  L 0.463414634146341 10.0360054347826  C 0.154471544715447 9.74343297101449  0 9.39696557971014  0 8.99660326086956  C 0 8.58854166666667  0.154471544715447 8.23822463768116  0.463414634146341 7.94565217391304  L 8.40243902439024 0.427309782608696  C 8.6869918699187 0.142436594202898  9.05284552845529 0  9.5 0  C 9.9390243902439 0  10.3089430894309 0.142436594202898  10.609756097561 0.427309782608696  L 18.5487804878049 7.94565217391304  Z " fill-rule="nonzero" fill="#fa541c" stroke="none" transform="matrix(1 0 0 1 581 1748 )" />
  </g>
</svg>