<?xml version="1.0" encoding="utf-8"?>
<svg version="1.1" xmlns:xlink="http://www.w3.org/1999/xlink" width="90px" height="73px" xmlns="http://www.w3.org/2000/svg">
  <defs>
    <mask fill="white" id="clip3">
      <path d="M 0 69.6818181818182  L 0 1.10606060606061  C 0 -0.75212121212122  1.31999999999994 1.10606060606061  3 1.10606060606061  L 87 1.10606060606061  C 88.6800000000001 1.10606060606061  90 2.5660606060606  90 4.42424242424242  L 90 69.6818181818182  C 90 71.54  88.6800000000001 73  87 73  L 3 73  C 1.31999999999994 73  0 71.54  0 69.6818181818182  Z " fill-rule="evenodd" />
    </mask>
  </defs>
  <g transform="matrix(1 0 0 1 -1890 -332 )">
    <path d="M 0 69.6818181818182  L 0 1.10606060606061  C 0 -0.75212121212122  1.31999999999994 1.10606060606061  3 1.10606060606061  L 87 1.10606060606061  C 88.6800000000001 1.10606060606061  90 2.5660606060606  90 4.42424242424242  L 90 69.6818181818182  C 90 71.54  88.6800000000001 73  87 73  L 3 73  C 1.31999999999994 73  0 71.54  0 69.6818181818182  Z " fill-rule="nonzero" fill="#ffffff" stroke="none" fill-opacity="0" transform="matrix(1 0 0 1 1890 332 )" />
    <path d="M 0 69.6818181818182  L 0 1.10606060606061  C 0 -0.75212121212122  1.31999999999994 1.10606060606061  3 1.10606060606061  L 87 1.10606060606061  C 88.6800000000001 1.10606060606061  90 2.5660606060606  90 4.42424242424242  L 90 69.6818181818182  C 90 71.54  88.6800000000001 73  87 73  L 3 73  C 1.31999999999994 73  0 71.54  0 69.6818181818182  Z " stroke-width="10" stroke="#95f204" fill="none" transform="matrix(1 0 0 1 1890 332 )" mask="url(#clip3)" />
  </g>
</svg>