<?xml version="1.0" encoding="utf-8"?>
<svg version="1.1" xmlns:xlink="http://www.w3.org/1999/xlink" width="16px" height="20px" xmlns="http://www.w3.org/2000/svg">
  <g transform="matrix(1 0 0 1 -117 -256 )">
    <path d="M 1.45 0  L 14.55 0  C 14.7416666666667 0  14.925 0.0396563119629878  15.1 0.118968935888963  C 15.375 0.233531614893145  15.59375 0.414188147168979  15.75625 0.660938532716457  C 15.91875 0.907688918263934  16 1.18087684512007  16 1.48050231328486  L 16 18.5194976867151  C 16 18.8191231548799  15.91875 19.0923110817361  15.75625 19.3390614672835  C 15.59375 19.585811852831  15.375 19.7664683851069  15.1 19.881031064111  C 14.9416666666667 19.9515311742675  14.7583333333333 19.9867812293457  14.55 19.9867812293457  C 14.15 19.9867812293457  13.8041666666667 19.8457810090328  13.5125 19.5637805684071  L 8 13.9590218109716  L 2.4875 19.5637805684071  C 2.1875 19.8545935228024  1.84166666666667 20  1.45 20  C 1.25833333333333 20  1.075 19.960343688037  0.9 19.881031064111  C 0.625 19.7664683851069  0.40625 19.585811852831  0.24375 19.3390614672835  C 0.08125 19.0923110817361  0 18.8191231548799  0 18.5194976867151  L 0 1.48050231328486  C 0 1.18087684512007  0.08125 0.907688918263934  0.24375 0.660938532716457  C 0.40625 0.414188147168979  0.625 0.233531614893145  0.9 0.118968935888963  C 1.075 0.0396563119629878  1.25833333333333 0  1.45 0  Z " fill-rule="nonzero" fill="#ffffff" stroke="none" transform="matrix(1 0 0 1 117 256 )" />
  </g>
</svg>