<?xml version="1.0" encoding="utf-8"?>
<svg version="1.1" xmlns:xlink="http://www.w3.org/1999/xlink" width="24px" height="20px" xmlns="http://www.w3.org/2000/svg">
  <g transform="matrix(1 0 0 1 -1141 -312 )">
    <path d="M 14.71875 12.265625  C 15.9831730769232 11.2119391025641  16.6153846153845 9.94391025641025  16.6153846153845 8.46153846153845  C 16.6153846153845 6.97916666666669  15.9831730769232 5.71113782051282  14.71875 4.65745192307693  C 13.4543269230768 3.60376602564102  11.9326923076924 3.07692307692307  10.1538461538462 3.07692307692307  C 8.37500000000011 3.07692307692307  6.85336538461536 3.60376602564102  5.58894230769226 4.65745192307693  C 4.32451923076917 5.71113782051282  3.69230769230774 6.97916666666669  3.69230769230774 8.46153846153845  C 3.69230769230774 9.94391025641025  4.32451923076917 11.2119391025641  5.58894230769226 12.265625  C 6.85336538461536 13.3193108974359  8.37500000000011 13.8461538461539  10.1538461538462 13.8461538461539  C 11.9326923076924 13.8461538461539  13.4543269230768 13.3193108974359  14.71875 12.265625  Z M 23.4663461538462 17.3798076923077  C 23.8221153846155 17.676282051282  24 18.036858974359  24 18.4615384615385  C 24 18.8782051282051  23.8173076923079 19.238782051282  23.4519230769231 19.5432692307692  C 23.0865384615383 19.8477564102564  22.6538461538462 20  22.1538461538462 20  C 21.6346153846155 20  21.2019230769231 19.8477564102564  20.8557692307693 19.5432692307692  L 15.9086538461538 15.4326923076923  C 14.1875000000001 16.426282051282  12.2692307692308 16.9230769230769  10.1538461538462 16.9230769230769  C 8.77884615384619 16.9230769230769  7.46394230769226 16.7007211538461  6.20913461538464 16.2560096153846  C 4.95432692307679 15.8112980769231  3.87259615384619 15.2103365384615  2.96394230769226 14.453125  C 2.05528846153857 13.6959134615385  1.33413461538464 12.7944711538461  0.80048076923083 11.7487980769231  C 0.266826923076792 10.703125  0 9.6073717948718  0 8.46153846153845  C 0 7.31570512820514  0.266826923076792 6.21995192307693  0.80048076923083 5.17427884615387  C 1.33413461538464 4.12860576923077  2.05528846153857 3.22716346153845  2.96394230769226 2.46995192307693  C 3.87259615384619 1.71274038461539  4.95432692307679 1.11177884615387  6.20913461538464 0.667067307692321  C 7.46394230769226 0.222355769230774  8.77884615384619 0  10.1538461538462 0  C 11.5288461538462 0  12.84375 0.222355769230774  14.0985576923077 0.667067307692321  C 15.3533653846154 1.11177884615387  16.4350961538462 1.71274038461539  17.34375 2.46995192307693  C 18.2524038461538 3.22716346153845  18.9735576923079 4.12860576923077  19.5072115384614 5.17427884615387  C 20.0408653846155 6.21995192307693  20.3076923076922 7.31570512820514  20.3076923076922 8.46153846153845  C 20.3076923076922 10.224358974359  19.7115384615383 11.8229166666667  18.5192307692307 13.2572115384615  L 23.4663461538462 17.3798076923077  Z " fill-rule="nonzero" fill="#666666" stroke="none" transform="matrix(1 0 0 1 1141 312 )" />
  </g>
</svg>